<?xml version="1.0" encoding="UTF-8" standalone="no"?>
<svg
   xmlns:dc="http://purl.org/dc/elements/1.1/"
   xmlns:cc="http://creativecommons.org/ns#"
   xmlns:rdf="http://www.w3.org/1999/02/22-rdf-syntax-ns#"
   xmlns:svg="http://www.w3.org/2000/svg"
   xmlns="http://www.w3.org/2000/svg"
   xmlns:sodipodi="http://sodipodi.sourceforge.net/DTD/sodipodi-0.dtd"
   xmlns:inkscape="http://www.inkscape.org/namespaces/inkscape"
   width="320.00003mm"
   height="320.00003mm"
   viewBox="0 0 320.00003 320.00003"
   version="1.1"
   id="svg1157"
   inkscape:version="1.0 (4035a4fb49, 2020-05-01)"
   sodipodi:docname="signature_black.svg">
  <defs
     id="defs1151" />
  <sodipodi:namedview
     inkscape:showpageshadow="false"
     units="pc"
     id="base"
     pagecolor="#ffffff"
     bordercolor="#666666"
     borderopacity="1.0"
     inkscape:pageopacity="0.0"
     inkscape:pageshadow="2"
     inkscape:zoom="0.35"
     inkscape:cx="421.00172"
     inkscape:cy="625.11666"
     inkscape:document-units="mm"
     inkscape:current-layer="layer1"
     inkscape:document-rotation="0"
     showgrid="false"
     inkscape:window-width="1624"
     inkscape:window-height="997"
     inkscape:window-x="190"
     inkscape:window-y="27"
     inkscape:window-maximized="0" />
  <metadata
     id="metadata1154">
    <rdf:RDF>
      <cc:Work
         rdf:about="">
        <dc:format>image/svg+xml</dc:format>
        <dc:type
           rdf:resource="http://purl.org/dc/dcmitype/StillImage" />
        <dc:title></dc:title>
      </cc:Work>
    </rdf:RDF>
  </metadata>
  <g
     inkscape:label="bg"
     inkscape:groupmode="layer"
     id="layer1">
    <path
       inkscape:export-ydpi="61.799999"
       inkscape:export-xdpi="61.799999"
       d="M 0,0 H 320.00002 V 320.00002 H 0 Z"
       style="opacity:1;fill:none;fill-opacity:1;stroke-width:10"
       id="rect925"
       inkscape:label="bg" />
  </g>
  <g
     inkscape:groupmode="layer"
     id="layer4"
     inkscape:label="fg">
    <path
       inkscape:export-ydpi="61.799999"
       inkscape:export-xdpi="61.799999"
       d="m 157.95796,16.43516 c -4.0154,0.005 -7.95677,0.18228 -9.22683,0.52606 -2.53891,0.68725 -8.54692,3.08442 -9.28987,3.70675 -0.3282,0.27492 -0.75364,0.5002 -0.94516,0.50023 -0.71995,1.1e-4 -6.21997,3.78635 -9.0873,6.25595 -4.40565,3.79454 -5.63773,5.01492 -7.80314,7.72873 -1.07822,1.35126 -2.0655,2.54189 -2.19367,2.64583 -2.08527,1.69111 -13.12898,22.49176 -17.4594,32.8843 -1.30065,3.12142 -1.52406,3.72241 -2.388483,6.42079 -1.95616,6.10634 -2.38,7.97506 -3.17293,13.98985 -0.23295,1.76704 -0.59035,4.27914 -0.79427,5.5826 -1.32368,8.46133 -1.56802,22.9853 -0.91726,54.51554 0.56754,27.49732 -1.0332,43.75262 -5.68027,57.68898 -2.70061,8.09903 -6.05558,15.15442 -9.14673,19.23552 -0.16014,0.21142 -0.96685,1.40206 -1.79317,2.64583 -2.26503,3.40935 -6.46775,8.24749 -10.83655,12.47521 -4.97542,4.81476 -6.99749,6.4292 -11.85147,9.46247 -3.31852,2.07376 -3.591,2.37366 -3.591,3.9548 0,1.61602 1.10852,3.25958 2.36989,3.51348 v 5.3e-4 c 0.4636,0.0927 1.26828,0.092 1.788,-0.002 1.17146,-0.21203 8.53271,-5.11865 11.33936,-7.55819 5.72123,-4.97292 12.837,-12.49936 14.95103,-15.81402 0.39457,-0.61866 0.81578,-1.20968 0.93637,-1.31362 0.1206,-0.10395 1.21559,-1.72001 2.43293,-3.59099 1.21734,-1.87098 2.49121,-3.8268 2.83083,-4.34651 0.81462,-1.24661 3.13887,-6.08175 4.17908,-8.69352 0.45537,-1.14337 0.97269,-2.41919 1.1498,-2.83497 1.02752,-2.41211 1.60248,-4.0874 2.76365,-8.05481 0.71128,-2.43024 1.39256,-4.92845 1.51412,-5.55211 0.12156,-0.62366 0.48293,-2.32494 0.80305,-3.78014 2.445663,-11.11737 2.944423,-25.90136 2.455153,-72.76041 -0.16307,-15.61753 -0.10164,-18.61781 0.4718,-23.05647 0.36258,-2.80648 0.83667,-6.54821 1.05369,-8.31525 0.56978,-4.63933 1.1216,-7.83478 1.76216,-10.20559 1.05503,-3.90483 2.35332,-7.88091 3.1688,-9.70535 0.44812,-1.00254 1.06762,-2.41794 1.37666,-3.14554 2.31767,-5.45665 7.88083,-16.41122 12.57339,-24.75766 1.07776,-1.91695 4.97734,-7.11091 6.766,-9.01185 2.05836,-2.18758 7.89352,-7.11359 10.28774,-8.68526 3.0942,-2.03116 8.93854,-4.66661 11.84321,-5.34024 3.24964,-0.75365 11.51546,-0.77503 15.33188,-0.0398 8.78557,1.69254 12.06411,3.7732 16.70699,10.604 1.66138,2.44429 5.97173,10.64321 5.97173,11.35899 0,0.0976 0.33239,0.89849 0.73845,1.77974 3.19378,6.93131 4.55321,12.34314 4.55321,18.12448 0,5.11254 -1.37997,13.46403 -3.05924,18.51205 -1.60007,4.80991 -2.35031,6.53947 -6.19704,14.29163 -2.62166,5.28332 -4.74032,9.31581 -6.35465,12.09538 -3.69401,6.36042 -14.98661,18.10299 -24.64087,25.62273 l -2.56729,1.99987 -1.56889,-2.37763 c -4.29871,-6.5151 -5.96699,-8.68417 -9.09557,-11.82508 -4.08246,-4.09853 -4.50452,-4.4343 -7.47913,-5.94589 -3.56189,-1.80948 -7.74928,-2.55267 -10.21695,-1.81229 -7.814,2.34444 -12.43511,6.56547 -16.56023,15.12672 -1.66953,3.46493 -1.71031,3.58234 -2.41019,6.93705 -0.93178,4.46629 -0.73346,6.34505 1.05679,10.01179 3.5424,7.25546 14.54156,11.52514 23.99233,9.31364 5.00448,-1.17107 12.08564,-4.29954 17.20412,-7.60057 1.40971,-0.90916 2.70016,-1.65261 2.86752,-1.65261 0.16736,0 1.97822,2.67891 4.02404,5.95312 6.73135,10.77311 10.20211,15.6727 15.98921,22.57175 3.94447,4.70237 6.02804,6.84755 8.9209,9.18652 1.4725,1.19055 2.93242,2.40821 3.24425,2.70578 1.77535,1.69415 7.57244,4.86619 11.15022,6.10092 2.00148,0.6907 9.95408,0.70582 12.47314,0.0238 7.49578,-2.02955 14.92178,-6.64936 24.37939,-15.16651 1.55915,-1.40412 3.39366,-3.01997 4.07675,-3.591 1.39656,-1.16744 2.3487,-2.78179 2.3487,-3.98219 0,-1.31437 -1.99347,-3.01377 -3.5357,-3.01377 -1.3916,0 -1.79252,0.3006 -8.6279,6.46266 -9.28483,8.37023 -17.34454,12.71355 -24.32254,13.10721 -3.37654,0.19048 -5.29477,-0.29165 -8.785,-2.2071 -5.65219,-3.10196 -13.25572,-10.1704 -19.06809,-17.72656 -4.52658,-5.88461 -11.84256,-16.8613 -15.85123,-23.78201 l -0.62683,-1.0821 1.72548,-1.27641 c 0.9492,-0.70221 2.12386,-1.54644 2.61017,-1.87585 0.48631,-0.3294 1.6077,-1.26769 2.49184,-2.08515 0.88414,-0.81747 3.81852,-3.46064 6.52105,-5.87354 10.46945,-9.34743 14.40401,-14.65635 21.87929,-29.52429 5.37599,-10.69261 7.78961,-16.57684 8.87645,-21.63847 0.2232,-1.03944 0.56923,-2.65499 0.76895,-3.59048 1.34594,-6.3042 1.49107,-18.05337 0.26613,-21.54494 -0.32819,-0.93549 -0.59903,-2.00067 -0.60203,-2.36729 -0.003,-0.36663 -0.16349,-0.96194 -0.35656,-1.32292 -0.19305,-0.36098 -0.98472,-2.35704 -1.75907,-4.43591 -5.34864,-14.35929 -11.78453,-24.03692 -18.30069,-27.51837 -2.48169,-1.32592 -6.98666,-2.8373 -11.15023,-3.74035 -1.56714,-0.3399 -5.65687,-0.5052 -9.67227,-0.49971 z m 1.02474,75.98502 c -0.87318,0.0322 -1.7085,0.49207 -2.51871,1.38131 -1.44334,1.58414 -1.41888,3.45369 0.0651,4.93769 1.48006,1.48004 3.77612,1.55016 5.16868,0.15761 0.80967,-0.80968 0.9311,-1.23378 0.83354,-2.91662 -0.10284,-1.77385 -0.24541,-2.05753 -1.43712,-2.85977 -0.73016,-0.49153 -1.43236,-0.72525 -2.1115,-0.70022 z m -30.24156,31.17949 c 0.97072,0 7.32823,4.59111 7.32823,5.29219 0,0.16117 -0.59622,0.40495 -1.32446,0.54157 -1.55374,0.29148 -2.25378,1.44079 -3.5848,5.88336 -1.01969,3.40343 -1.86004,5.96525 -2.2934,6.99234 -1.51323,3.58646 -1.81653,5.98136 -0.91984,7.26157 0.3195,0.45614 0.41711,0.91069 0.22169,1.03146 -0.98247,0.6072 -8.35246,0.51232 -8.35246,-0.10749 0,-0.26528 2.3082,-5.93582 3.02411,-7.42952 1.28113,-2.67299 3.95609,-11.40905 5.29528,-17.29248 0.27209,-1.19535 0.54469,-2.173 0.60565,-2.173 z m -7.73648,0.37776 c 0.53038,0 0.36985,1.61996 -0.39584,4.00079 -0.39547,1.22968 -1.23064,3.87027 -1.85622,5.86786 -0.62557,1.99758 -1.51016,4.5487 -1.96577,5.66942 -0.45562,1.12072 -0.96754,2.37785 -1.1374,2.79363 -0.16986,0.41577 -0.73818,1.73418 -1.26297,2.92953 -0.52479,1.19535 -1.13274,2.17351 -1.35082,2.17351 -0.21809,0 -0.90776,-0.70615 -1.53273,-1.56889 -0.98688,-1.36236 -1.13636,-1.89315 -1.13636,-4.03645 0,-2.30671 0.40006,-4.27799 1.1808,-5.82341 0.18237,-0.36099 0.33125,-0.81654 0.33125,-1.01235 0,-0.36214 2.62947,-4.97844 3.03238,-5.3237 0.12129,-0.10395 0.71328,-0.84556 1.31568,-1.64745 1.08127,-1.43936 4.14973,-4.02249 4.778,-4.02249 z m 18.32446,9.46195 c 0.36124,0.004 0.82952,0.66832 1.68052,1.92702 0.8951,1.32393 2.19037,3.21338 2.87889,4.19871 1.44242,2.06421 1.55716,2.78553 0.4961,3.12229 -0.41578,0.13197 -0.75603,0.39833 -0.75603,0.59221 0,0.19388 -0.22207,0.35243 -0.49351,0.35243 -0.27144,0 -1.06394,0.42098 -1.76113,0.93535 -0.69719,0.51437 -2.51398,1.53512 -4.03748,2.26807 -3.06439,1.4742 -3.31805,1.54516 -3.06131,0.8599 0.47851,-1.27721 3.29144,-9.79739 3.83697,-11.62254 0.53567,-1.79217 0.80759,-2.6375 1.21698,-2.63344 z m 125.23628,63.16824 c -0.77494,0.0161 -1.57046,0.3079 -2.27221,0.9586 -0.85185,0.78987 -1.0356,1.28276 -1.0356,2.77657 0,2.0142 0.65402,2.90007 2.51096,3.4029 1.97908,0.5359 3.33729,-0.1453 4.14599,-2.07998 1.11718,-2.67261 -1.0243,-5.10641 -3.34914,-5.05809 z m -28.30886,32.23731 c -0.96607,0.01 -2.3583,0.40112 -5.14078,1.3994 -6.56737,2.35619 -8.13449,3.04832 -17.29403,7.63622 -10.79451,5.40684 -16.81901,8.49533 -19.46599,9.98027 -1.35127,0.75806 -3.64733,2.00784 -5.10254,2.77709 -2.42413,1.28145 -16.6507,8.95818 -18.48982,9.97717 -0.43283,0.23982 -1.0421,0.63148 -1.35393,0.87023 -0.31183,0.23875 -1.58764,0.98245 -2.83496,1.65261 -1.24732,0.67017 -3.62857,2.02519 -5.29167,3.01172 -1.66309,0.9865 -6.00015,3.53957 -9.63817,5.67304 -3.63802,2.13344 -7.50507,4.45209 -8.59327,5.15263 -1.08821,0.70056 -2.09537,1.27383 -2.23811,1.27383 -0.14275,0 -0.52813,0.2431 -0.8568,0.54055 -0.32866,0.29744 -1.02277,0.77226 -1.54202,1.05521 -3.18502,1.73566 -19.43678,12.7168 -23.24458,15.70603 -0.20788,0.1632 -1.00271,0.76931 -1.7663,1.34721 -1.64405,1.24423 -2.3355,2.87369 -1.80815,4.26072 0.41093,1.08082 1.05331,1.81006 1.8805,2.13476 1.8899,0.74181 3.00677,0.1963 9.44232,-4.61264 4.57178,-3.41622 22.60075,-15.21042 28.05565,-18.3534 0.83943,-0.48366 6.36081,-3.75441 8.70851,-5.15888 0.99059,-0.59258 1.88666,-1.07743 1.99161,-1.07743 0.10495,0 0.91068,-0.4549 1.79007,-1.01079 1.3278,-0.83939 6.05907,-3.56825 13.50512,-7.7897 2.94167,-1.66777 8.73938,-4.81855 12.66228,-6.88125 2.28675,-1.2024 4.32775,-2.30947 4.53564,-2.46031 0.70222,-0.50953 19.53773,-10.30445 24.37939,-12.67778 2.76648,-1.35611 5.55079,-2.65699 8.50439,-3.97392 1.49963,-0.66865 4.95694,-1.96215 7.05641,-2.63963 3.1305,-1.01019 4.45815,-1.79156 4.86586,-2.86391 0.92329,-2.42845 0.0349,-4.49658 -2.10427,-4.89789 -0.18941,-0.0355 -0.38943,-0.0534 -0.61236,-0.0512 z"
       style="opacity:1;fill:#000000;fill-opacity:1;stroke-width:14.2857"
       id="path907"
       inkscape:label="fg" />
  </g>
</svg>
